PathFileType	4	(X/Y/Z)	C:/Users/beibeiliu/ov580/test_trc/capture2\sequence.6_training_dense_right.trc
DataRate	CameraRate	NumFrames	NumMarkers	Units	OrigDataRate	OrigDataStartFrame	OrigNumFrames
120	120	10	19	mm	120	1	353
Frame#	Time	ThumbCMC			ThumbMCP			ThumbIP			ThumbTip			IndexMCP			IndexPIP			IndexTip			MiddleMCP			MiddlePIP			MiddleTip			RingMCP			RingPIP			RingTip			PinkyMCP			PinkyPIP			PinkyTip			BackHand1			BackHand2			BackHand3	
		X0	Y0	Z0	X1	Y1	Z1	X2	Y2	Z2	X3	Y3	Z3	X4	Y4	Z4	X5	Y5	Z5	X6	Y6	Z6	X7	Y7	Z7	X8	Y8	Z8	X9	Y9	Z9	X10	Y10	Z10	X11	Y11	Z11	X12	Y12	Z12	X13	Y13	Z13	X14	Y14	Z14	X15	Y15	Z15	X16	Y16	Z16	X17	Y17	Z17	X18	Y18	Z18	
0	0	125.939	42.5004	-19.0814	102.361	31.9964	-37.4233	89.1827	26.6647	-61.0583	79.6179	22.4243	-80.2661	139.439	52.4753	-92.849	134.282	46.4786	-119.944	130.324	46.4741	-140.139	170.329	51.0991	-96.5029	169.465	46.7072	-122.425	175.957	40.9865	-150.648	187.992	43.2961	-91.1533	193.93	39.1632	-115.791	201.667	34.4666	-141.756	205.29	33.3467	-76.575	217.262	29.0504	-95.0707	231.638	29.0757	-111.796	184.311	54.0837	-41.4248	181.944	58.9173	-10.571	152.985	62.5887	-27.8885	
1	0.00833333	122.918	42.103	-23.8635	105.721	30.7257	-36.6524	90.6888	25.7174	-63.0653	76.9389	21.37	-77.5482	138.377	51.2039	-92.5862	131.247	47.6796	-119.056	132.846	45.5191	-143.918	165.403	51.0513	-95.8422	168.075	45.9509	-126.419	174.619	41.0761	-152.627	185.004	43.8419	-93.6393	196.743	38.1893	-112.128	199.24	34.3558	-141.388	203.552	32.9366	-76.0305	217.024	28.9379	-95.9915	227.999	29.0112	-116.5	182.748	53.5379	-41.3492	180.845	57.7868	-10.9993	151.382	63.1579	-31.1245	
2	0.0166667	121.048	41.4881	-17.9683	105.5	29.5563	-38.7766	88.8349	25.5489	-61.7098	79.3788	21.6551	-79.4717	137.916	50.3786	-92.4458	130.172	46.9545	-114.604	133.117	45.3128	-140.074	165.141	49.9198	-100.336	166.974	45.2307	-125.3	174.41	39.6762	-153.231	186.744	42.5531	-91.2212	191.815	38.0736	-112.047	198.788	32.6919	-139.396	203.315	33.5851	-76.7549	215.06	27.3101	-93.0329	226.43	28.691	-111.811	182.841	52.9909	-41.8534	183.253	57.5466	-13.0349	152.454	62.6199	-28.9589	
3	0.025	119.485	40.9072	-20.3782	102.574	29.5135	-35.5691	89.0109	25.12	-62.7077	76.5485	20.7391	-79.5677	135.148	50.3312	-89.8076	129.186	46.0027	-118.265	133.278	44.9496	-141.255	168.123	48.9466	-97.2105	170.258	43.6408	-125.25	175.719	38.0261	-150.376	184.673	43.1185	-92.6081	192.854	37.5973	-115.4	196.578	32.0172	-139.704	202.043	32.7232	-75.133	212.34	27.062	-91.1536	228.184	27.7918	-114.455	179.541	54.489	-41.7011	180.694	55.1292	-9.85019	148.144	61.2627	-32.1107	
4	0.0333333	118.3	41.6258	-21.9677	103.437	29.3541	-36.973	88.6095	25.1149	-61.6002	77.4942	20.0608	-80.9005	136.162	50.3842	-93.9383	128.978	47.0922	-115.432	133.163	44.3926	-140.75	162.845	49.9129	-94.6772	167.632	43.3194	-125.587	172.035	39.367	-149.446	183.003	41.9352	-88.068	189.672	37.5963	-116.599	196.752	32.999	-141.486	202.476	31.4063	-72.7014	213.991	27.4087	-95.716	227.618	26.3068	-114.995	179.57	53.5747	-38.7286	183.392	56.7599	-10.1491	152.876	60.549	-28.2585	
5	0.0416667	119.152	41.0779	-23.9734	105.673	28.7732	-38.5641	90.8541	24.1552	-58.1715	79.0644	19.9774	-78.4066	133.441	50.2273	-92.9774	132.998	46.5025	-119.228	126.917	45.6137	-144.275	165.378	49.7934	-95.6958	169.826	44.593	-122.824	171.34	39.8527	-148.812	182.714	42.872	-92.7874	192.555	38.1792	-113.856	194.308	33.0713	-138.546	205.103	32.0881	-76.7705	211.426	28.0795	-93.7024	230.038	28.1992	-115.869	183.956	52.9687	-42.1705	180.708	56.7094	-14.1275	152.715	60.9379	-33.2552	
6	0.05	121.126	40.6663	-23.6725	101.636	30.3978	-37.4436	85.4019	25.4822	-60.8608	74.7099	19.9299	-77.4491	134.342	50.5677	-94.0205	127.281	47.4133	-119.741	131.812	45.475	-144.218	162.394	51.0455	-98.0006	166.954	44.9701	-124.071	171.679	39.3346	-151.634	186.457	42.9359	-93.0285	193.157	37.6877	-114.631	197.55	33.1209	-138.698	201.526	32.9337	-75.8269	215.52	26.6272	-95.4509	229.627	27.6699	-116.995	179.973	55.5321	-40.5894	177.889	57.6863	-12.8706	149.945	61.1323	-33.4861	
7	0.0583333	119.482	40.9033	-19.1321	101.458	30.4439	-37.5109	86.1758	25.587	-59.5894	74.0767	21.1315	-79.1042	131.986	51.5006	-93.9248	129.87	46.5296	-121.486	128.728	46.1276	-146.306	164.118	49.6541	-99.3611	166.666	44.2853	-125.472	174.178	38.5076	-155.21	186.693	41.7052	-93.4065	193.931	37.1626	-115.599	194.469	34.2822	-138.955	201.241	32.9803	-74.3147	211.297	27.691	-93.0565	229.094	28.768	-113.792	179.513	56.113	-44.8644	178.396	58.1671	-10.8915	147.366	62.1996	-30.4544	
8	0.0666667	121.813	39.8736	-23.5502	101.122	29.7778	-36.5229	88.0489	25.2452	-57.5028	74.4491	20.5492	-76.2313	133.726	49.8972	-94.7234	128.453	47.0724	-118.993	130.294	45.6364	-141.024	164.424	49.2549	-97.3849	167.393	42.8033	-126.813	170.271	38.567	-148.799	182.675	42.5913	-89.2176	189.875	37.1785	-112.584	196.247	33.3188	-141.055	202.671	32.1348	-75.0233	210.792	26.6092	-95.4069	228.338	25.6681	-110.595	183.493	54.5641	-42.2511	181.63	56.1134	-13.1013	150.706	60.1155	-28.7705	
9	0.075	118.868	41.0586	-18.2133	100.217	28.9938	-36.563	85.8425	25.7102	-56.7127	73.0205	21.684	-77.4501	135.58	50.1223	-94.1928	127.026	46.2575	-114.721	128.758	44.3403	-143.031	161.187	49.7013	-99.6093	166.443	42.6106	-125.834	168.999	39.0758	-148.954	183.196	41.6211	-88.5601	188.222	36.529	-112.054	193.641	32.4001	-138.774	204.161	30.5772	-73.8392	211.348	25.841	-93.6342	224.194	27.4515	-112.758	177.653	51.9168	-39.341	180.994	54.3636	-13.456	152.396	61.2148	-27.3791	
